#!OML:ASF X:\für Bonn\!DataBase\2005_08_10_Bjorn_Final\c3d\bjorn.ASF
:FULLY-SPECIFIED
:DEGREES
292
root 16.0095 18.7903 0.870846 176.223 -100.942 -151.203
lowerback 41.0889 1.95478 7.59166
upperback 21.4058 2.00409 -0.809181
thorax 4.47729 0.942157 -5.41654
lowerneck -1.85167 -6.30162 12.1698
upperneck -11.0051 -8.58426 -0.157934
head -3.92746 -4.87194 -1.89207
rclavicle -2.54444e-014 -2.11519e-014
rhumerus 23.0336 13.7934 -54.5719
rradius 30.8813
rwrist -3.0238
rhand -15.0274 14.1335
rfingers 7.12502
rthumb 11.1383 -15.5509
lclavicle -2.54444e-014 -2.11519e-014
lhumerus -13.356 -24.333 83.9528
lradius 44.3774
lwrist 0.657415
lhand -31.3335 -17.3549
lfingers 7.12502
lthumb -4.60515 12.5751
rfemur -52.7217 -5.88458 9.64129
rtibia 44.5951
rfoot -12.6958 2.19654
rtoes -5.08268
lfemur -50.8667 2.02847 -22.0719
ltibia 41.9038
lfoot -8.8776 7.9913
ltoes -19.3006
293
root 15.9805 18.8212 0.862419 175.824 -100.738 -151.692
lowerback 40.7093 2.00407 7.47607
upperback 21.3447 2.01969 -0.792027
thorax 4.50533 0.931747 -5.3447
lowerneck -1.69179 -6.21726 12.2645
upperneck -10.8343 -8.45895 -0.347439
head -3.90487 -4.79492 -1.97761
rclavicle -7.95139e-015 3.8117e-014
rhumerus 21.7203 14.0121 -55.4968
rradius 30.6594
rwrist -2.99403
rhand -14.6554 13.6961
rfingers 7.12502
rthumb 11.4971 -15.9686
lclavicle -7.95139e-015 3.8117e-014
lhumerus -13.5273 -24.0676 83.8209
lradius 44.0475
lwrist 0.378928
lhand -31.4224 -17.3111
lfingers 7.12502
lthumb -4.69101 12.617
rfemur -51.4144 -5.76797 9.87843
rtibia 44.092
rfoot -12.6423 2.46644
rtoes -5.04782
lfemur -49.4812 2.0092 -21.7207
ltibia 41.4323
lfoot -8.90897 8.27489
ltoes -19.4579
294
root 15.9485 18.8513 0.853184 175.579 -100.54 -152.334
lowerback 40.2655 2.05014 7.37038
upperback 21.3255 2.02545 -0.759527
thorax 4.60065 0.918809 -5.25852
lowerneck -1.61767 -6.12082 12.4237
upperneck -10.9627 -8.36184 -0.785837
head -3.6009 -4.72275 -1.95241
rclavicle 5.725e-014 5.61567e-014
rhumerus 20.4942 14.2471 -56.3131
rradius 30.4541
rwrist -3.03539
rhand -14.281 13.3857
rfingers 7.12502
rthumb 11.8581 -16.2585
lclavicle 5.725e-014 5.61567e-014
lhumerus -13.6113 -23.7924 83.6902
lradius 43.6936
lwrist 0.218486
lhand -31.5598 -17.1598
lfingers 7.12502
lthumb -4.82366 12.7653
rfemur -50.1043 -5.65322 10.1449
rtibia 43.5993
rfoot -12.6077 2.7073
rtoes -5.02092
lfemur -48.0928 1.9795 -21.3413
ltibia 40.9782
lfoot -8.9843 8.52605
ltoes -19.3953
295
root 15.9143 18.8791 0.843946 175.202 -100.341 -152.861
lowerback 39.8284 2.10562 7.25403
upperback 21.2961 2.04301 -0.731804
thorax 4.68514 0.911331 -5.17508
lowerneck -1.42421 -6.05954 12.5809
upperneck -10.8672 -8.2705 -1.06037
head -3.61449 -4.6651 -2.05865
rclavicle -2.22639e-014 4.2043e-014
rhumerus 19.2262 14.3748 -57.1833
rradius 30.2155
rwrist -2.98352
rhand -13.9099 13.1603
rfingers 7.12502
rthumb 12.216 -16.463
lclavicle -2.22639e-014 4.2043e-014
lhumerus -13.7172 -23.5893 83.5712
lradius 43.3828
lwrist 0.157069
lhand -31.6611 -16.9543
lfingers 7.12502
lthumb -4.92152 12.9685
rfemur -48.7678 -5.54977 10.3775
rtibia 43.123
rfoot -12.5704 2.99769
rtoes -4.78385
lfemur -46.6786 1.93362 -20.9906
ltibia 40.5286
lfoot -9.04806 8.80872
ltoes -19.5443
296
root 15.8773 18.9077 0.834838 174.956 -100.142 -153.545
lowerback 39.3663 2.15057 7.14782
upperback 21.2936 2.04577 -0.690542
thorax 4.80879 0.897254 -5.07795
lowerneck -1.36622 -5.99611 12.598
upperneck -10.6279 -8.19002 -1.25384
head -3.55289 -4.60519 -2.12607
rclavicle -3.81667e-014 -1.59028e-015
rhumerus 18.0128 14.4344 -58.0269
rradius 29.9651
rwrist -2.84248
rhand -13.5427 12.8808
rfingers 7.12502
rthumb 12.57 -16.7211
lclavicle -3.81667e-014 -1.59028e-015
lhumerus -13.7855 -23.3564 83.4399
lradius 43.0665
lwrist 0.0267113
lhand -31.7671 -16.6081
lfingers 7.12502
lthumb -5.0238 13.3123
rfemur -47.3954 -5.47344 10.645
rtibia 42.6452
rfoot -12.5674 3.30015
rtoes -4.65739
lfemur -45.2316 1.89486 -20.6276
ltibia 40.0861
lfoot -9.12626 9.0709
ltoes -19.6796
297
root 15.839 18.9338 0.824809 174.717 -99.9457 -154.219
lowerback 38.8623 2.2009 7.02189
upperback 21.3098 2.04565 -0.642609
thorax 4.96676 0.880828 -4.96256
lowerneck -1.41809 -5.93001 12.5677
upperneck -10.3053 -8.11882 -1.40804
head -3.44493 -4.54734 -2.17904
rclavicle 6.67916e-014 4.77083e-014
rhumerus 16.8392 14.339 -58.9024
rradius 29.6887
rwrist -2.59788
rhand -13.2107 12.6843
rfingers 7.12502
rthumb 12.8901 -16.8977
lclavicle 6.67916e-014 4.77083e-014
lhumerus -13.8016 -23.081 83.3066
lradius 42.7332
lwrist -0.0839896
lhand -31.834 -16.2608
lfingers 7.12502
lthumb -5.08846 13.6581
rfemur -46.0399 -5.40357 10.9086
rtibia 42.1771
rfoot -12.5478 3.57504
rtoes -4.60734
lfemur -43.7909 1.8121 -20.2538
ltibia 39.6393
lfoot -9.20989 9.36565
ltoes -19.8932
298
root 15.7987 18.9593 0.815291 174.576 -99.7723 -155.03
lowerback 38.4057 2.2212 6.93135
upperback 21.3027 2.02796 -0.595803
thorax 5.08696 0.857864 -4.86145
lowerneck -1.38712 -5.87375 12.516
upperneck -9.8062 -8.02582 -1.39807
head -3.63856 -4.4947 -2.41256
rclavicle -2.70347e-014 1.8487e-014
rhumerus 15.6998 14.4592 -59.6253
rradius 29.4484
rwrist -2.63121
rhand -12.9204 12.4004
rfingers 7.12502
rthumb 13.1699 -17.1637
lclavicle -2.70347e-014 1.8487e-014
lhumerus -13.8669 -22.8567 83.1815
lradius 42.4265
lwrist -0.18744
lhand -31.8957 -15.8473
lfingers 7.12502
lthumb -5.14799 14.0702
rfemur -44.6225 -5.35188 11.1762
rtibia 41.7108
rfoot -12.5566 3.88363
rtoes -4.3792
lfemur -42.3082 1.72871 -19.8786
ltibia 39.193
lfoot -9.31517 9.60711
ltoes -19.8794
299
root 15.7561 18.9845 0.805629 174.356 -99.5798 -155.743
lowerback 37.9011 2.25339 6.83076
upperback 21.3244 2.01498 -0.558544
thorax 5.25743 0.839134 -4.76668
lowerneck -1.47148 -5.80243 12.5012
upperneck -9.65883 -7.96218 -1.62828
head -3.57704 -4.44926 -2.49728
rclavicle 3.97569e-014 -1.27222e-014
rhumerus 14.6378 14.5575 -60.302
rradius 29.2293
rwrist -2.64164
rhand -12.6527 12.037
rfingers 7.12502
rthumb 13.428 -17.5102
lclavicle 3.97569e-014 -1.27222e-014
lhumerus -13.8675 -22.6077 83.0339
lradius 42.1222
lwrist -0.359394
lhand -31.9399 -15.385
lfingers 7.12502
lthumb -5.19068 14.5315
rfemur -43.2333 -5.3117 11.4339
rtibia 41.2576
rfoot -12.558 4.17692
rtoes -4.4259
lfemur -40.832 1.66512 -19.5381
ltibia 38.7467
lfoot -9.42765 9.87369
ltoes -19.9789
300
root 15.7123 19.0064 0.795573 174.051 -99.4082 -156.376
lowerback 37.409 2.27636 6.71978
upperback 21.3391 1.99152 -0.526379
thorax 5.41687 0.814588 -4.66902
lowerneck -1.60928 -5.71928 12.4799
upperneck -9.48014 -7.88931 -1.85509
head -3.49296 -4.39855 -2.58197
rclavicle 4.29375e-014 1.19271e-015
rhumerus 13.6082 14.6691 -60.9431
rradius 29.0246
rwrist -2.75468
rhand -12.3915 11.6886
rfingers 7.12502
rthumb 13.6797 -17.8418
lclavicle 4.29375e-014 1.19271e-015
lhumerus -13.8643 -22.3738 82.8817
lradius 41.8028
lwrist -0.510685
lhand -31.9775 -14.9518
lfingers 7.12502
lthumb -5.22702 14.9637
rfemur -41.8338 -5.26291 11.6476
rtibia 40.8125
rfoot -12.5747 4.48409
rtoes -4.23257
lfemur -39.3482 1.5687 -19.2146
ltibia 38.3037
lfoot -9.56186 10.1098
ltoes -19.9477
